# Blender v2.76 (sub 0) OBJ File: 'ios_box.blend'
# www.blender.org
mtllib dat_geo.mtl
o Cube_Cube.001
v 2.826761 0.000000 -2.000000
v 3.000000 0.000000 -1.826761
v 2.893057 0.000000 -1.986813
v 2.949260 0.000000 -1.949260
v 2.986813 0.000000 -1.893057
v 3.000000 0.100000 -1.826761
v 2.826761 0.100000 -2.000000
v 2.986813 0.100000 -1.893057
v 2.949260 0.100000 -1.949260
v 2.893057 0.100000 -1.986813
v 0.000000 0.000000 -2.000000
v 0.000000 0.100000 -2.000000
v -2.826761 0.000000 -2.000000
v -3.000000 0.000000 -1.826761
v -2.893057 0.000000 -1.986813
v -2.949260 0.000000 -1.949260
v -2.986813 0.000000 -1.893057
v -3.000000 0.100000 -1.826761
v -2.826761 0.100000 -2.000000
v -2.986813 0.100000 -1.893057
v -2.949260 0.100000 -1.949260
v -2.893057 0.100000 -1.986813
v 3.000000 0.000000 0.000000
v 3.000000 0.100000 0.000000
v 2.826761 0.000000 2.000000
v 3.000000 0.000000 1.826761
v 2.893057 0.000000 1.986813
v 2.949260 0.000000 1.949260
v 2.986813 0.000000 1.893057
v 3.000000 0.100000 1.826761
v 2.826761 0.100000 2.000000
v 2.986813 0.100000 1.893057
v 2.949260 0.100000 1.949260
v 2.893057 0.100000 1.986813
v 0.000000 0.000000 2.000000
v 0.000000 0.100000 2.000000
v -3.000000 0.000000 0.000000
v -3.000000 0.100000 0.000000
v -2.826761 0.000000 2.000000
v -3.000000 0.000000 1.826761
v -2.893057 0.000000 1.986813
v -2.949260 0.000000 1.949260
v -2.986813 0.000000 1.893057
v -3.000000 0.100000 1.826761
v -2.826761 0.100000 2.000000
v -2.986813 0.100000 1.893057
v -2.949260 0.100000 1.949260
v -2.893057 0.100000 1.986813
v 3.000000 0.100000 -1.660692
v 3.000000 0.100000 -1.494623
v 3.000000 0.100000 -1.328554
v 3.000000 0.100000 -1.162484
v 3.000000 0.100000 -0.996415
v 3.000000 0.100000 -0.830346
v 3.000000 0.100000 -0.664277
v 3.000000 0.100000 -0.498208
v 3.000000 0.100000 -0.332138
v 3.000000 0.100000 -0.166069
v 3.000000 0.000000 -0.166069
v 3.000000 0.000000 -0.332138
v 3.000000 0.000000 -0.498208
v 3.000000 0.000000 -0.664277
v 3.000000 0.000000 -0.830346
v 3.000000 0.000000 -0.996415
v 3.000000 0.000000 -1.162484
v 3.000000 0.000000 -1.328553
v 3.000000 0.000000 -1.494623
v 3.000000 0.000000 -1.660692
v 0.256978 0.100000 -2.000000
v 0.513957 0.100000 -2.000000
v 0.770935 0.100000 -2.000000
v 1.027913 0.100000 -2.000000
v 1.284891 0.100000 -2.000000
v 1.541870 0.100000 -2.000000
v 1.798848 0.100000 -2.000000
v 2.055826 0.100000 -2.000000
v 2.312804 0.100000 -2.000000
v 2.569783 0.100000 -2.000000
v 2.569783 0.000000 -2.000000
v 2.312804 0.000000 -2.000000
v 2.055826 0.000000 -2.000000
v 1.798848 0.000000 -2.000000
v 1.541870 0.000000 -2.000000
v 1.284891 0.000000 -2.000000
v 1.027913 0.000000 -2.000000
v 0.770935 0.000000 -2.000000
v 0.513957 0.000000 -2.000000
v 0.256978 0.000000 -2.000000
v -3.000000 0.100000 -1.660692
v -3.000000 0.100000 -1.494623
v -3.000000 0.100000 -1.328554
v -3.000000 0.100000 -1.162484
v -3.000000 0.100000 -0.996415
v -3.000000 0.100000 -0.830346
v -3.000000 0.100000 -0.664277
v -3.000000 0.100000 -0.498208
v -3.000000 0.100000 -0.332138
v -3.000000 0.100000 -0.166069
v -3.000000 0.000000 -0.166069
v -3.000000 0.000000 -0.332138
v -3.000000 0.000000 -0.498208
v -3.000000 0.000000 -0.664277
v -3.000000 0.000000 -0.830346
v -3.000000 0.000000 -0.996415
v -3.000000 0.000000 -1.162484
v -3.000000 0.000000 -1.328553
v -3.000000 0.000000 -1.494623
v -3.000000 0.000000 -1.660692
v -0.256978 0.100000 -2.000000
v -0.513957 0.100000 -2.000000
v -0.770935 0.100000 -2.000000
v -1.027913 0.100000 -2.000000
v -1.284891 0.100000 -2.000000
v -1.541870 0.100000 -2.000000
v -1.798848 0.100000 -2.000000
v -2.055826 0.100000 -2.000000
v -2.312804 0.100000 -2.000000
v -2.569783 0.100000 -2.000000
v -2.569783 0.000000 -2.000000
v -2.312804 0.000000 -2.000000
v -2.055826 0.000000 -2.000000
v -1.798848 0.000000 -2.000000
v -1.541870 0.000000 -2.000000
v -1.284891 0.000000 -2.000000
v -1.027913 0.000000 -2.000000
v -0.770935 0.000000 -2.000000
v -0.513957 0.000000 -2.000000
v -0.256978 0.000000 -2.000000
v 3.000000 0.100000 1.660692
v 3.000000 0.100000 1.494623
v 3.000000 0.100000 1.328554
v 3.000000 0.100000 1.162484
v 3.000000 0.100000 0.996415
v 3.000000 0.100000 0.830346
v 3.000000 0.100000 0.664277
v 3.000000 0.100000 0.498208
v 3.000000 0.100000 0.332138
v 3.000000 0.100000 0.166069
v 3.000000 0.000000 0.166069
v 3.000000 0.000000 0.332138
v 3.000000 0.000000 0.498208
v 3.000000 0.000000 0.664277
v 3.000000 0.000000 0.830346
v 3.000000 0.000000 0.996415
v 3.000000 0.000000 1.162484
v 3.000000 0.000000 1.328553
v 3.000000 0.000000 1.494623
v 3.000000 0.000000 1.660692
v 0.256978 0.100000 2.000000
v 0.513957 0.100000 2.000000
v 0.770935 0.100000 2.000000
v 1.027913 0.100000 2.000000
v 1.284891 0.100000 2.000000
v 1.541870 0.100000 2.000000
v 1.798848 0.100000 2.000000
v 2.055826 0.100000 2.000000
v 2.312804 0.100000 2.000000
v 2.569783 0.100000 2.000000
v 2.569783 0.000000 2.000000
v 2.312804 0.000000 2.000000
v 2.055826 0.000000 2.000000
v 1.798848 0.000000 2.000000
v 1.541870 0.000000 2.000000
v 1.284891 0.000000 2.000000
v 1.027913 0.000000 2.000000
v 0.770935 0.000000 2.000000
v 0.513957 0.000000 2.000000
v 0.256978 0.000000 2.000000
v -3.000000 0.100000 1.660692
v -3.000000 0.100000 1.494623
v -3.000000 0.100000 1.328554
v -3.000000 0.100000 1.162484
v -3.000000 0.100000 0.996415
v -3.000000 0.100000 0.830346
v -3.000000 0.100000 0.664277
v -3.000000 0.100000 0.498208
v -3.000000 0.100000 0.332138
v -3.000000 0.100000 0.166069
v -3.000000 0.000000 0.166069
v -3.000000 0.000000 0.332138
v -3.000000 0.000000 0.498208
v -3.000000 0.000000 0.664277
v -3.000000 0.000000 0.830346
v -3.000000 0.000000 0.996415
v -3.000000 0.000000 1.162484
v -3.000000 0.000000 1.328553
v -3.000000 0.000000 1.494623
v -3.000000 0.000000 1.660692
v -0.256978 0.100000 2.000000
v -0.513957 0.100000 2.000000
v -0.770935 0.100000 2.000000
v -1.027913 0.100000 2.000000
v -1.284891 0.100000 2.000000
v -1.541870 0.100000 2.000000
v -1.798848 0.100000 2.000000
v -2.055826 0.100000 2.000000
v -2.312804 0.100000 2.000000
v -2.569783 0.100000 2.000000
v -2.569783 0.000000 2.000000
v -2.312804 0.000000 2.000000
v -2.055826 0.000000 2.000000
v -1.798848 0.000000 2.000000
v -1.541870 0.000000 2.000000
v -1.284891 0.000000 2.000000
v -1.027913 0.000000 2.000000
v -0.770935 0.000000 2.000000
v -0.513957 0.000000 2.000000
v -0.256978 0.000000 2.000000
vn 0.000000 0.000000 -1.000000
vn 0.980800 0.000000 -0.195100
vn 0.831500 0.000000 -0.555600
vn 0.555600 0.000000 -0.831500
vn 0.195100 0.000000 -0.980800
vn 1.000000 0.000000 0.000000
vn -0.980800 0.000000 -0.195100
vn -0.831500 0.000000 -0.555600
vn -0.555600 0.000000 -0.831500
vn -0.195100 0.000000 -0.980800
vn -1.000000 0.000000 0.000000
vn 0.000000 0.000000 1.000000
vn 0.980800 0.000000 0.195100
vn 0.831500 0.000000 0.555600
vn 0.555600 0.000000 0.831500
vn 0.195100 0.000000 0.980800
vn -0.980800 0.000000 0.195100
vn -0.831500 0.000000 0.555600
vn -0.555600 0.000000 0.831500
vn -0.195100 0.000000 0.980800
usemtl None
s off
f 78//1 7//1 1//1 79//1
f 6//2 2//2 5//2 8//2
f 8//3 5//3 4//3 9//3
f 9//4 4//4 3//4 10//4
f 10//5 3//5 1//5 7//5
f 58//6 24//6 23//6 59//6
f 118//1 119//1 13//1 19//1
f 18//7 20//7 17//7 14//7
f 20//8 21//8 16//8 17//8
f 21//9 22//9 15//9 16//9
f 22//10 19//10 13//10 15//10
f 98//11 99//11 37//11 38//11
f 158//12 159//12 25//12 31//12
f 30//13 32//13 29//13 26//13
f 32//14 33//14 28//14 29//14
f 33//15 34//15 27//15 28//15
f 34//16 31//16 25//16 27//16
f 138//6 139//6 23//6 24//6
f 198//12 45//12 39//12 199//12
f 44//17 40//17 43//17 46//17
f 46//18 43//18 42//18 47//18
f 47//19 42//19 41//19 48//19
f 48//20 41//20 39//20 45//20
f 178//11 38//11 37//11 179//11
f 44//11 169//11 188//11 40//11
f 169//11 170//11 187//11 188//11
f 170//11 171//11 186//11 187//11
f 171//11 172//11 185//11 186//11
f 172//11 173//11 184//11 185//11
f 173//11 174//11 183//11 184//11
f 174//11 175//11 182//11 183//11
f 175//11 176//11 181//11 182//11
f 176//11 177//11 180//11 181//11
f 177//11 178//11 179//11 180//11
f 36//12 189//12 208//12 35//12
f 189//12 190//12 207//12 208//12
f 190//12 191//12 206//12 207//12
f 191//12 192//12 205//12 206//12
f 192//12 193//12 204//12 205//12
f 193//12 194//12 203//12 204//12
f 194//12 195//12 202//12 203//12
f 195//12 196//12 201//12 202//12
f 196//12 197//12 200//12 201//12
f 197//12 198//12 199//12 200//12
f 30//6 26//6 148//6 129//6
f 129//6 148//6 147//6 130//6
f 130//6 147//6 146//6 131//6
f 131//6 146//6 145//6 132//6
f 132//6 145//6 144//6 133//6
f 133//6 144//6 143//6 134//6
f 134//6 143//6 142//6 135//6
f 135//6 142//6 141//6 136//6
f 136//6 141//6 140//6 137//6
f 137//6 140//6 139//6 138//6
f 36//12 35//12 168//12 149//12
f 149//12 168//12 167//12 150//12
f 150//12 167//12 166//12 151//12
f 151//12 166//12 165//12 152//12
f 152//12 165//12 164//12 153//12
f 153//12 164//12 163//12 154//12
f 154//12 163//12 162//12 155//12
f 155//12 162//12 161//12 156//12
f 156//12 161//12 160//12 157//12
f 157//12 160//12 159//12 158//12
f 18//11 14//11 108//11 89//11
f 89//11 108//11 107//11 90//11
f 90//11 107//11 106//11 91//11
f 91//11 106//11 105//11 92//11
f 92//11 105//11 104//11 93//11
f 93//11 104//11 103//11 94//11
f 94//11 103//11 102//11 95//11
f 95//11 102//11 101//11 96//11
f 96//11 101//11 100//11 97//11
f 97//11 100//11 99//11 98//11
f 12//1 11//1 128//1 109//1
f 109//1 128//1 127//1 110//1
f 110//1 127//1 126//1 111//1
f 111//1 126//1 125//1 112//1
f 112//1 125//1 124//1 113//1
f 113//1 124//1 123//1 114//1
f 114//1 123//1 122//1 115//1
f 115//1 122//1 121//1 116//1
f 116//1 121//1 120//1 117//1
f 117//1 120//1 119//1 118//1
f 6//6 49//6 68//6 2//6
f 49//6 50//6 67//6 68//6
f 50//6 51//6 66//6 67//6
f 51//6 52//6 65//6 66//6
f 52//6 53//6 64//6 65//6
f 53//6 54//6 63//6 64//6
f 54//6 55//6 62//6 63//6
f 55//6 56//6 61//6 62//6
f 56//6 57//6 60//6 61//6
f 57//6 58//6 59//6 60//6
f 12//1 69//1 88//1 11//1
f 69//1 70//1 87//1 88//1
f 70//1 71//1 86//1 87//1
f 71//1 72//1 85//1 86//1
f 72//1 73//1 84//1 85//1
f 73//1 74//1 83//1 84//1
f 74//1 75//1 82//1 83//1
f 75//1 76//1 81//1 82//1
f 76//1 77//1 80//1 81//1
f 77//1 78//1 79//1 80//1
